<svg xmlns="http://www.w3.org/2000/svg" viewBox="0 0 64 64">
  <defs>
    <linearGradient id="g" x1="0" x2="1" y1="0" y2="1">
      <stop offset="0" stop-color="#0ea5a4" />
      <stop offset="1" stop-color="#2563eb" />
    </linearGradient>
  </defs>
  <rect width="64" height="64" rx="12" fill="url(#g)" />
  <path d="M32 10c-6 0-12 3-14 5v14c0 11 8 18 14 20 6-2 14-9 14-20V15c-2-2-8-5-14-5z" fill="#fff" opacity="0.12"/>
  <path d="M32 12c-5.2 0-10 2.6-11.6 4.1v12.9c0 9 6.9 14.9 11.6 16.6 4.7-1.7 11.6-7.6 11.6-16.6V16.1C42 14.6 37.2 12 32 12z" fill="#fff"/>
  <path d="M25 30l4.5 4L39 25" stroke="#0b1220" stroke-width="3" stroke-linecap="round" stroke-linejoin="round" fill="none"/>
</svg>
